<svg xmlns="http://www.w3.org/2000/svg" version="1.1" xmlns:xlink="http://www.w3.org/1999/xlink" xmlns:svgjs="http://svgjs.dev/svgjs" width="1500" height="284" viewBox="0 0 1500 284"><g transform="matrix(1,0,0,1,-0.9090909090909918,-1.4944258272482216)"><svg viewBox="0 0 396 75" data-background-color="#28353b" preserveAspectRatio="xMidYMid meet" height="284" width="1500" xmlns="http://www.w3.org/2000/svg" xmlns:xlink="http://www.w3.org/1999/xlink"><g id="tight-bounds" transform="matrix(1,0,0,1,0.2400000000000091,0.3946547079000595)"><svg viewBox="0 0 395.52 74.21069058419987" height="74.21069058419987" width="395.52"><g><svg viewBox="0 0 515.3909105705372 96.7018491966504" height="74.21069058419987" width="395.52"><g><rect width="3.7156093387173694" height="70.32225647079134" x="106.42857521423514" y="13.189796362929528" fill="#ffffff" opacity="1" stroke-width="0" stroke="transparent" fill-opacity="1" class="rect-yte-0" data-fill-palette-color="primary" rx="1%" id="yte-0" data-palette-color="#ffffff"></rect></g><g transform="matrix(1,0,0,1,119.87091057053725,13.364727349175276)"><svg viewBox="0 0 395.52 69.97239449829985" height="69.97239449829985" width="395.52"><g id="textblocktransform"><svg viewBox="0 0 395.52 69.97239449829985" height="69.97239449829985" width="395.52" id="textblock"><g><svg viewBox="0 0 395.52 41.201672417292464" height="41.201672417292464" width="395.52"><g transform="matrix(1,0,0,1,0,0)"><svg width="395.52" viewBox="3.3 -38.38 479.24999999999994 50.120000000000005" height="41.201672417292464" data-palette-color="#ffffff"><g class="wordmark-text-0" data-fill-palette-color="primary" id="text-0"><path d="M25.66-22.44L25.66-22.44Q26.56-23.54 28.45-24.57 30.35-25.61 33.79-25.61L33.79-25.61Q38.67-25.61 40.84-23.1 43.02-20.58 43.02-15.55L43.02-15.55 43.02-1.29Q43.02-0.56 42.71-0.28 42.41 0 41.67 0L41.67 0 36.65 0Q35.91 0 35.61-0.28 35.3-0.56 35.3-1.29L35.3-1.29 35.3-14.28Q35.3-17.02 34.3-18.2 33.3-19.38 31.3-19.38L31.3-19.38Q29.52-19.38 28.48-18.59 27.44-17.8 27-16.46L27-16.46 27-1.29Q27-0.56 26.7-0.28 26.39 0 25.66 0L25.66 0 20.63 0Q19.9 0 19.59-0.28 19.29-0.56 19.29-1.29L19.29-1.29 19.29-14.28Q19.29-16.94 18.19-18.16 17.09-19.38 15.31-19.38L15.31-19.38Q13.62-19.38 12.6-18.55 11.57-17.72 11.01-16.46L11.01-16.46 11.01-1.29Q11.01-0.56 10.71-0.28 10.4 0 9.67 0L9.67 0 4.64 0Q3.91 0 3.6-0.28 3.3-0.56 3.3-1.29L3.3-1.29 3.3-21.75Q3.3-22.34 3.54-22.66L3.54-22.66Q4.05-23.34 4.77-24.05 5.49-24.76 6.54-25.56L6.54-25.56Q6.86-25.81 7.15-25.81L7.15-25.81Q7.42-25.81 7.76-25.56L7.76-25.56Q8.79-24.76 9.52-24.02 10.25-23.29 10.82-22.51L10.82-22.51 10.94-22.51Q11.77-23.56 13.53-24.58 15.28-25.61 18.55-25.61L18.55-25.61Q21.68-25.61 23.19-24.67 24.71-23.73 25.66-22.44ZM61.59 0.61L61.59 0.61Q55.44 0.61 51.85-2.66 48.26-5.93 48.26-12.4L48.26-12.4Q48.26-19.04 51.99-22.33 55.71-25.61 61.94-25.61L61.94-25.61Q67.94-25.61 71.56-22.38 75.17-19.14 75.17-12.84L75.17-12.84Q75.17-6.27 71.56-2.83 67.94 0.61 61.59 0.61ZM61.84-5.3L61.84-5.3Q64.52-5.3 65.89-6.97 67.26-8.64 67.26-12.7L67.26-12.7Q67.26-16.55 65.88-18.13 64.5-19.7 61.79-19.7L61.79-19.7Q59.18-19.7 57.68-18.01 56.17-16.31 56.17-12.5L56.17-12.5Q56.17-8.52 57.6-6.91 59.03-5.3 61.84-5.3ZM88.13-22.17L88.13-20.36 88.23-20.36Q90.06-25.44 94.82-25.44L94.82-25.44Q95.43-25.44 95.82-25.38 96.21-25.32 96.36-25.27L96.36-25.27Q96.72-25.15 96.72-24.71L96.72-24.71 96.72-18.82Q96.72-18.07 95.84-18.41L95.84-18.41Q95.55-18.53 95-18.66 94.45-18.8 93.48-18.8L93.48-18.8Q90.96-18.8 89.55-16.96 88.13-15.11 88.13-11.94L88.13-11.94 88.13-1.29Q88.13-0.56 87.82-0.28 87.52 0 86.79 0L86.79 0 81.76 0Q81.03 0 80.72-0.28 80.41-0.56 80.41-1.29L80.41-1.29 80.41-21.75Q80.41-22.34 80.66-22.66L80.66-22.66Q81.17-23.34 81.89-24.05 82.61-24.76 83.66-25.56L83.66-25.56Q83.86-25.71 84.05-25.76 84.25-25.81 84.39-25.81L84.39-25.81Q84.74-25.81 85.08-25.56L85.08-25.56Q87.1-23.97 87.91-22.85L87.91-22.85Q88.13-22.56 88.13-22.17L88.13-22.17ZM110.25 0.61L110.25 0.61Q102.09 0.61 102.09-7.86L102.09-7.86 102.09-19.31 99.33-19.31Q98.6-19.31 98.32-19.62 98.04-19.92 98.04-20.65L98.04-20.65 98.04-23.66Q98.04-24.39 98.32-24.69 98.6-25 99.33-25L99.33-25 102.09-25 102.09-28.93Q102.09-29.52 102.34-29.83L102.34-29.83Q103.36-31.18 105.34-32.74L105.34-32.74Q105.68-32.98 105.95-32.98L105.95-32.98Q106.24-32.98 106.54-32.74L106.54-32.74Q107.59-31.93 108.31-31.23 109.03-30.52 109.54-29.83L109.54-29.83Q109.78-29.52 109.78-28.93L109.78-28.93 109.78-25 114.1-25Q114.84-25 115.12-24.69 115.4-24.39 115.4-23.66L115.4-23.66 115.4-20.65Q115.4-19.92 115.12-19.62 114.84-19.31 114.1-19.31L114.1-19.31 109.78-19.31 109.78-9.2Q109.78-5.3 112.61-5.3L112.61-5.3Q113.05-5.3 113.42-5.38 113.79-5.47 114.06-5.57L114.06-5.57Q114.57-5.76 114.78-5.71 114.98-5.66 115.15-5.18L115.15-5.18 116.57-1.39Q116.79-0.78 116.28-0.51L116.28-0.51Q115.91-0.34 114.51 0.13 113.1 0.61 110.25 0.61ZM144.81-22.66L144.81-22.66 144.81-2.86Q144.81 4.27 140.75 8.01 136.68 11.74 129.6 11.74L129.6 11.74Q126.67 11.74 124.97 11.32 123.26 10.89 122.38 10.5L122.38 10.5Q121.82 10.23 121.65 9.94L121.65 9.94Q121.4 9.55 121.1 8.79 120.79 8.03 120.52 7.13L120.52 7.13Q120.45 6.79 120.5 6.62L120.5 6.62Q120.6 6.37 120.86 6.1L120.86 6.1Q121.3 5.66 122.12 5.08 122.94 4.49 123.38 4.32L123.38 4.32Q123.84 4.15 124.23 4.37L124.23 4.37Q124.87 4.71 126.05 5.14 127.24 5.57 129.38 5.57L129.38 5.57Q132.8 5.57 134.95 3.81 137.1 2.05 137.1-1.61L137.1-1.61 137.1-2.49 137-2.49Q136.46-1.81 135.61-1.1 134.76-0.39 133.4 0.1 132.05 0.59 129.92 0.59L129.92 0.59Q126.24 0.59 123.88-1.01 121.52-2.61 120.41-5.42 119.3-8.23 119.3-11.82L119.3-11.82Q119.3-15.75 120.6-18.87 121.89-22 124.94-23.82 127.99-25.63 133.29-25.63L133.29-25.63Q136.46-25.63 138.63-25.17 140.79-24.71 142.25-24.02 143.72-23.34 144.81-22.66ZM133.02-19.73L133.02-19.73Q130.19-19.73 128.7-17.82 127.21-15.92 127.21-11.91L127.21-11.91Q127.21-5.64 132.39-5.64L132.39-5.64Q134.41-5.64 135.49-6.47 136.56-7.3 137.1-8.57L137.1-8.57 137.1-18.65Q136.56-19.04 135.59-19.38 134.61-19.73 133.02-19.73ZM157.87 0.61L157.87 0.61Q154.28 0.61 152.17-1.4 150.06-3.42 150.06-6.96L150.06-6.96Q150.06-8.79 150.73-10.36 151.4-11.94 153.08-13.15 154.75-14.36 157.76-15.09 160.78-15.82 165.47-15.94L165.47-15.94Q165.47-18.16 164.36-19.14 163.24-20.12 161.02-20.12L161.02-20.12Q159.02-20.12 157.75-19.43 156.48-18.75 156.16-18.51L156.16-18.51Q155.82-18.21 155.33-18.29L155.33-18.29Q154.68-18.38 153.93-18.63 153.19-18.87 152.33-19.19L152.33-19.19Q152.21-19.24 152.06-19.35 151.92-19.46 151.89-19.68L151.89-19.68Q151.89-19.8 151.92-19.98 151.94-20.17 152.04-20.65L152.04-20.65Q152.14-21.14 152.33-21.86 152.53-22.58 152.7-22.97L152.7-22.97Q152.92-23.39 153.43-23.75L153.43-23.75Q153.84-24.1 155.94-24.85 158.04-25.61 162.02-25.61L162.02-25.61Q172.99-25.61 172.99-14.94L172.99-14.94 172.99-1.12Q172.99-0.66 172.73-0.33 172.47 0 171.86 0L171.86 0 168.2 0Q167.81 0 167.5-0.11 167.2-0.22 166.93-0.54L166.93-0.54 165.42-2.49 165.25-2.49Q164.12-0.85 162.23-0.12 160.34 0.61 157.87 0.61ZM160.56-5.05L160.56-5.05Q162.8-5.05 163.95-6.2 165.1-7.35 165.42-8.57L165.42-8.57 165.42-11.28Q162.02-11.28 160.33-10.75 158.63-10.23 158.07-9.39 157.51-8.54 157.51-7.57L157.51-7.57Q157.51-6.15 158.39-5.6 159.26-5.05 160.56-5.05ZM203.74-22.66L203.74-22.66 203.74-2.86Q203.74 4.27 199.68 8.01 195.61 11.74 188.53 11.74L188.53 11.74Q185.61 11.74 183.9 11.32 182.19 10.89 181.31 10.5L181.31 10.5Q180.75 10.23 180.58 9.94L180.58 9.94Q180.33 9.55 180.03 8.79 179.72 8.03 179.45 7.13L179.45 7.13Q179.38 6.79 179.43 6.62L179.43 6.62Q179.53 6.37 179.79 6.1L179.79 6.1Q180.23 5.66 181.05 5.08 181.87 4.49 182.31 4.32L182.31 4.32Q182.77 4.15 183.16 4.37L183.16 4.37Q183.8 4.71 184.98 5.14 186.17 5.57 188.32 5.57L188.32 5.57Q191.73 5.57 193.88 3.81 196.03 2.05 196.03-1.61L196.03-1.61 196.03-2.49 195.93-2.49Q195.4-1.81 194.54-1.1 193.69-0.39 192.33 0.1 190.98 0.59 188.85 0.59L188.85 0.59Q185.17 0.59 182.81-1.01 180.45-2.61 179.34-5.42 178.23-8.23 178.23-11.82L178.23-11.82Q178.23-15.75 179.53-18.87 180.82-22 183.87-23.82 186.92-25.63 192.22-25.63L192.22-25.63Q195.4-25.63 197.56-25.17 199.72-24.71 201.18-24.02 202.65-23.34 203.74-22.66ZM191.95-19.73L191.95-19.73Q189.12-19.73 187.63-17.82 186.14-15.92 186.14-11.91L186.14-11.91Q186.14-5.64 191.32-5.64L191.32-5.64Q193.34-5.64 194.42-6.47 195.49-7.3 196.03-8.57L196.03-8.57 196.03-18.65Q195.49-19.04 194.52-19.38 193.54-19.73 191.95-19.73ZM222.59 0.61L222.59 0.61Q218.46 0.61 215.41-0.72 212.36-2.05 210.68-4.86 208.99-7.67 208.99-12.11L208.99-12.11Q208.99-18.77 212.41-22.19 215.83-25.61 221.49-25.61L221.49-25.61Q225.18-25.61 227.73-24.29 230.28-22.97 231.61-20.65 232.94-18.33 232.94-15.36L232.94-15.36Q232.94-12.45 231.45-11.3 229.96-10.16 227.11-10.16L227.11-10.16 216.63-10.16Q216.83-7.64 218.48-6.32 220.12-5 222.96-5L222.96-5Q225.2-5 226.56-5.68 227.91-6.35 228.45-6.74L228.45-6.74Q228.91-7.08 229.5-7.06L229.5-7.06Q229.96-7.06 230.83-6.87 231.7-6.69 232.55-6.2L232.55-6.2Q233.16-5.88 233.16-5.32L233.16-5.32Q233.16-5 233.04-4.42L233.04-4.42Q232.97-4.08 232.8-3.43 232.62-2.78 232.36-2.22L232.36-2.22Q232.21-1.95 231.89-1.71L231.89-1.71Q231.4-1.37 230.32-0.81 229.23-0.24 227.35 0.18 225.47 0.61 222.59 0.61ZM216.58-15.16L216.58-15.16 224.54-15.16Q225.79-15.16 225.79-16.31L225.79-16.31Q225.79-18.04 224.7-19.23 223.62-20.41 221.44-20.41L221.44-20.41Q219.07-20.41 217.96-18.9 216.85-17.38 216.58-15.16Z" fill="#ffffff" data-fill-palette-color="primary"></path><path d="M262.7-25.61L262.7-25.61Q265.6-25.61 266.92-25.13 268.24-24.66 268.58-24.39L268.58-24.39Q269.12-24.05 269.41-23.51L269.41-23.51Q269.58-23.24 269.8-22.58 270.02-21.92 270.12-21.14L270.12-21.14Q270.24-20.53 270.14-20.28 270.05-20.02 269.53-19.65L269.53-19.65Q268.95-19.26 268.25-18.96 267.56-18.65 267.12-18.53L267.12-18.53Q266.75-18.43 266.56-18.48 266.36-18.53 266.02-18.77L266.02-18.77Q265.63-19.04 264.92-19.37 264.21-19.7 262.97-19.7L262.97-19.7Q261.38-19.7 259.95-18.92 258.52-18.14 257.63-16.58 256.74-15.01 256.74-12.67L256.74-12.67Q256.74-9.16 258.58-7.23 260.43-5.3 263.53-5.3L263.53-5.3Q265.12-5.3 266.17-5.63 267.22-5.96 267.83-6.3L267.83-6.3Q268.31-6.57 268.57-6.43 268.83-6.3 268.97-5.96L268.97-5.96 270.76-1.93Q271.02-1.29 270.46-1.03L270.46-1.03Q269.56-0.56 267.48 0.02 265.41 0.61 262.36 0.61L262.36 0.61Q256.23 0.61 252.57-2.65 248.9-5.91 248.9-12.4L248.9-12.4Q248.9-16.55 250.59-19.51 252.27-22.46 255.37-24.04 258.47-25.61 262.7-25.61ZM281.2 0.61L281.2 0.61Q277.61 0.61 275.5-1.4 273.39-3.42 273.39-6.96L273.39-6.96Q273.39-8.79 274.06-10.36 274.73-11.94 276.4-13.15 278.08-14.36 281.09-15.09 284.11-15.82 288.79-15.94L288.79-15.94Q288.79-18.16 287.68-19.14 286.57-20.12 284.35-20.12L284.35-20.12Q282.35-20.12 281.08-19.43 279.81-18.75 279.49-18.51L279.49-18.51Q279.15-18.21 278.66-18.29L278.66-18.29Q278-18.38 277.26-18.63 276.51-18.87 275.66-19.19L275.66-19.19Q275.54-19.24 275.39-19.35 275.24-19.46 275.22-19.68L275.22-19.68Q275.22-19.8 275.24-19.98 275.27-20.17 275.37-20.65L275.37-20.65Q275.46-21.14 275.66-21.86 275.86-22.58 276.03-22.97L276.03-22.97Q276.25-23.39 276.76-23.75L276.76-23.75Q277.17-24.1 279.27-24.85 281.37-25.61 285.35-25.61L285.35-25.61Q296.31-25.61 296.31-14.94L296.31-14.94 296.31-1.12Q296.31-0.66 296.06-0.33 295.8 0 295.19 0L295.19 0 291.53 0Q291.14 0 290.83-0.11 290.53-0.22 290.26-0.54L290.26-0.54 288.75-2.49 288.57-2.49Q287.45-0.85 285.56-0.12 283.67 0.61 281.2 0.61ZM283.89-5.05L283.89-5.05Q286.13-5.05 287.28-6.2 288.43-7.35 288.75-8.57L288.75-8.57 288.75-11.28Q285.35-11.28 283.66-10.75 281.96-10.23 281.4-9.39 280.84-8.54 280.84-7.57L280.84-7.57Q280.84-6.15 281.71-5.6 282.59-5.05 283.89-5.05ZM311.2-1.83L306.1 0.51Q305.59 0.73 305.37 0.73L305.37 0.73Q305.15 0.73 304.91 0.56L304.91 0.56Q304.34 0.17 303.62-1.35 302.9-2.88 302.9-6.05L302.9-6.05 302.9-34.33Q302.9-34.91 303.15-35.23L303.15-35.23Q304.17-36.57 306.15-38.13L306.15-38.13Q306.49-38.38 306.76-38.38L306.76-38.38Q307.08-38.38 307.37-38.13L307.37-38.13Q308.42-37.33 309.14-36.62 309.86-35.91 310.37-35.23L310.37-35.23Q310.62-34.91 310.62-34.33L310.62-34.33 310.62-7.54Q310.62-5.93 310.89-4.8 311.16-3.66 311.52-2.98L311.52-2.98Q311.94-2.17 311.2-1.83L311.2-1.83ZM329.76-25.61L329.76-25.61Q332.66-25.61 333.98-25.13 335.3-24.66 335.64-24.39L335.64-24.39Q336.18-24.05 336.47-23.51L336.47-23.51Q336.64-23.24 336.86-22.58 337.08-21.92 337.18-21.14L337.18-21.14Q337.3-20.53 337.2-20.28 337.11-20.02 336.59-19.65L336.59-19.65Q336.01-19.26 335.31-18.96 334.61-18.65 334.18-18.53L334.18-18.53Q333.81-18.43 333.61-18.48 333.42-18.53 333.08-18.77L333.08-18.77Q332.69-19.04 331.98-19.37 331.27-19.7 330.03-19.7L330.03-19.7Q328.44-19.7 327.01-18.92 325.58-18.14 324.69-16.58 323.8-15.01 323.8-12.67L323.8-12.67Q323.8-9.16 325.64-7.23 327.49-5.3 330.59-5.3L330.59-5.3Q332.17-5.3 333.22-5.63 334.27-5.96 334.88-6.3L334.88-6.3Q335.37-6.57 335.63-6.43 335.88-6.3 336.03-5.96L336.03-5.96 337.81-1.93Q338.08-1.29 337.52-1.03L337.52-1.03Q336.62-0.56 334.54 0.02 332.47 0.61 329.41 0.61L329.41 0.61Q323.29 0.61 319.62-2.65 315.96-5.91 315.96-12.4L315.96-12.4Q315.96-16.55 317.65-19.51 319.33-22.46 322.43-24.04 325.53-25.61 329.76-25.61ZM350.51 0.61L350.51 0.61Q341.81 0.61 341.81-9.91L341.81-9.91 341.79-22.31Q341.79-22.9 342.03-23.22L342.03-23.22Q343.06-24.56 345.04-26.12L345.04-26.12Q345.38-26.37 345.65-26.37L345.65-26.37Q345.96-26.37 346.26-26.12L346.26-26.12Q347.31-25.32 348.03-24.61 348.75-23.9 349.26-23.22L349.26-23.22Q349.5-22.9 349.5-22.31L349.5-22.31 349.5-10.6Q349.5-5.3 353.7-5.3L353.7-5.3Q355.78-5.3 357.02-6.75 358.27-8.2 358.27-10.69L358.27-10.69 358.27-22.31Q358.27-22.9 358.51-23.22L358.51-23.22Q359.54-24.56 361.52-26.12L361.52-26.12Q361.86-26.37 362.13-26.37L362.13-26.37Q362.44-26.37 362.74-26.12L362.74-26.12Q363.79-25.32 364.51-24.61 365.23-23.9 365.74-23.22L365.74-23.22Q365.98-22.9 365.98-22.31L365.98-22.31 365.98-1.12Q365.98-0.66 365.67-0.33 365.35 0 364.86 0L364.86 0 361.2 0Q360.81 0 360.5-0.11 360.2-0.22 359.93-0.54L359.93-0.54 358.42-2.49 358.25-2.49Q357.85-1.93 357.04-1.2 356.22-0.46 354.67 0.07 353.12 0.61 350.51 0.61ZM380.87-1.83L375.77 0.51Q375.26 0.73 375.04 0.73L375.04 0.73Q374.82 0.73 374.58 0.56L374.58 0.56Q374.01 0.17 373.29-1.35 372.57-2.88 372.57-6.05L372.57-6.05 372.57-34.33Q372.57-34.91 372.82-35.23L372.82-35.23Q373.84-36.57 375.82-38.13L375.82-38.13Q376.16-38.38 376.43-38.38L376.43-38.38Q376.75-38.38 377.04-38.13L377.04-38.13Q378.09-37.33 378.81-36.62 379.53-35.91 380.04-35.23L380.04-35.23Q380.29-34.91 380.29-34.33L380.29-34.33 380.29-7.54Q380.29-5.93 380.56-4.8 380.83-3.66 381.19-2.98L381.19-2.98Q381.61-2.17 380.87-1.83L380.87-1.83ZM393.45 0.61L393.45 0.61Q389.86 0.61 387.74-1.4 385.63-3.42 385.63-6.96L385.63-6.96Q385.63-8.79 386.3-10.36 386.98-11.94 388.65-13.15 390.32-14.36 393.34-15.09 396.35-15.82 401.04-15.94L401.04-15.94Q401.04-18.16 399.93-19.14 398.82-20.12 396.59-20.12L396.59-20.12Q394.59-20.12 393.32-19.43 392.05-18.75 391.74-18.51L391.74-18.51Q391.39-18.21 390.91-18.29L390.91-18.29Q390.25-18.38 389.5-18.63 388.76-18.87 387.9-19.19L387.9-19.19Q387.78-19.24 387.63-19.35 387.49-19.46 387.46-19.68L387.46-19.68Q387.46-19.8 387.49-19.98 387.51-20.17 387.61-20.65L387.61-20.65Q387.71-21.14 387.9-21.86 388.1-22.58 388.27-22.97L388.27-22.97Q388.49-23.39 389-23.75L389-23.75Q389.42-24.1 391.52-24.85 393.62-25.61 397.6-25.61L397.6-25.61Q408.56-25.61 408.56-14.94L408.56-14.94 408.56-1.12Q408.56-0.66 408.3-0.33 408.04 0 407.43 0L407.43 0 403.77 0Q403.38 0 403.08-0.11 402.77-0.22 402.5-0.54L402.5-0.54 400.99-2.49 400.82-2.49Q399.7-0.85 397.8-0.12 395.91 0.61 393.45 0.61ZM396.13-5.05L396.13-5.05Q398.38-5.05 399.52-6.2 400.67-7.35 400.99-8.57L400.99-8.57 400.99-11.28Q397.6-11.28 395.9-10.75 394.2-10.23 393.64-9.39 393.08-8.54 393.08-7.57L393.08-7.57Q393.08-6.15 393.96-5.6 394.84-5.05 396.13-5.05ZM425.03 0.61L425.03 0.61Q416.88 0.61 416.88-7.86L416.88-7.86 416.88-19.31 414.12-19.31Q413.39-19.31 413.11-19.62 412.83-19.92 412.83-20.65L412.83-20.65 412.83-23.66Q412.83-24.39 413.11-24.69 413.39-25 414.12-25L414.12-25 416.88-25 416.88-28.93Q416.88-29.52 417.12-29.83L417.12-29.83Q418.15-31.18 420.13-32.74L420.13-32.74Q420.47-32.98 420.74-32.98L420.74-32.98Q421.03-32.98 421.32-32.74L421.32-32.74Q422.37-31.93 423.09-31.23 423.81-30.52 424.33-29.83L424.33-29.83Q424.57-29.52 424.57-28.93L424.57-28.93 424.57-25 428.89-25Q429.62-25 429.91-24.69 430.19-24.39 430.19-23.66L430.19-23.66 430.19-20.65Q430.19-19.92 429.91-19.62 429.62-19.31 428.89-19.31L428.89-19.31 424.57-19.31 424.57-9.2Q424.57-5.3 427.4-5.3L427.4-5.3Q427.84-5.3 428.21-5.38 428.57-5.47 428.84-5.57L428.84-5.57Q429.36-5.76 429.56-5.71 429.77-5.66 429.94-5.18L429.94-5.18 431.36-1.39Q431.58-0.78 431.06-0.51L431.06-0.51Q430.7-0.34 429.29 0.13 427.89 0.61 425.03 0.61ZM447.42 0.61L447.42 0.61Q441.27 0.61 437.68-2.66 434.09-5.93 434.09-12.4L434.09-12.4Q434.09-19.04 437.81-22.33 441.54-25.61 447.76-25.61L447.76-25.61Q453.77-25.61 457.38-22.38 460.99-19.14 460.99-12.84L460.99-12.84Q460.99-6.27 457.38-2.83 453.77 0.61 447.42 0.61ZM447.66-5.3L447.66-5.3Q450.35-5.3 451.72-6.97 453.08-8.64 453.08-12.7L453.08-12.7Q453.08-16.55 451.7-18.13 450.33-19.7 447.62-19.7L447.62-19.7Q445-19.7 443.5-18.01 442-16.31 442-12.5L442-12.5Q442-8.52 443.43-6.91 444.86-5.3 447.66-5.3ZM473.96-22.17L473.96-20.36 474.05-20.36Q475.88-25.44 480.64-25.44L480.64-25.44Q481.26-25.44 481.65-25.38 482.04-25.32 482.18-25.27L482.18-25.27Q482.55-25.15 482.55-24.71L482.55-24.71 482.55-18.82Q482.55-18.07 481.67-18.41L481.67-18.41Q481.38-18.53 480.83-18.66 480.28-18.8 479.3-18.8L479.3-18.8Q476.79-18.8 475.37-16.96 473.96-15.11 473.96-11.94L473.96-11.94 473.96-1.29Q473.96-0.56 473.65-0.28 473.34 0 472.61 0L472.61 0 467.58 0Q466.85 0 466.55-0.28 466.24-0.56 466.24-1.29L466.24-1.29 466.24-21.75Q466.24-22.34 466.48-22.66L466.48-22.66Q467-23.34 467.72-24.05 468.44-24.76 469.49-25.56L469.49-25.56Q469.68-25.71 469.88-25.76 470.07-25.81 470.22-25.81L470.22-25.81Q470.56-25.81 470.9-25.56L470.9-25.56Q472.93-23.97 473.74-22.85L473.74-22.85Q473.96-22.56 473.96-22.17L473.96-22.17Z" fill="#fe6152" data-fill-palette-color="accent"></path></g></svg></g></svg></g><g transform="matrix(1,0,0,1,0,50.9283984348772)"><svg viewBox="0 0 232.209792 19.04399606342264" height="19.04399606342264" width="232.209792"><g transform="matrix(1,0,0,1,0,0)"><svg width="232.209792" viewBox="0.65 -36.05 457.19 37.5" height="19.04399606342264" data-palette-color="#ffffff"><path d="M17.4-27.7L17.4-27.7 17.6-29.25Q17.6-31.55 15.8-32.2L15.8-32.2Q14.4-32.65 13.65-32.65L13.65-32.65 13.6-32.65Q12.1-32.65 11-32.18 9.9-31.7 9.4-31L9.4-31Q8.35-29.55 8.2-27.95L8.2-27.95Q8.2-26.05 9.9-24.68 11.6-23.3 14.03-22.28 16.45-21.25 18.88-20.05 21.3-18.85 23-16.6 24.7-14.35 24.7-11.2L24.7-11.2Q24.7-5.05 20.83-2 16.95 1.05 12.03 1.05 7.1 1.05 3.88-1.18 0.65-3.4 0.65-7.15L0.65-7.15 0.65-7.2Q0.65-9.05 1.23-10.43 1.8-11.8 2.6-12.45L2.6-12.45Q4.25-13.8 5.6-13.9L5.6-13.9 6.2-13.95Q7.6-13.95 8.75-13.28 9.9-12.6 9.9-11.4L9.9-11.4Q9.9-10.8 9.25-10.4 8.6-10 8.13-9.2 7.65-8.4 7.6-7.85L7.6-7.85 7.5-7.3Q7.5-4.25 10.3-3.25L10.3-3.25Q11.3-2.9 11.9-2.9L11.9-2.9Q14.65-2.9 16.32-4.55 18-6.2 18-8.75L18-8.75Q18-11.8 15.4-13.7L15.4-13.7Q13.45-15.1 11.18-16.05 8.9-17 8.1-17.4 7.3-17.8 6.4-18.35 5.5-18.9 4.4-19.9L4.4-19.9Q2-22 2-25.58 2-29.15 3.95-31.6L3.95-31.6Q7.45-36.05 14.45-36.05L14.45-36.05Q18.15-36.05 20.7-34.63 23.25-33.2 23.25-30.7L23.25-30.7Q23.25-28.9 22.23-27.7 21.2-26.5 19.6-26.5L19.6-26.5Q18.85-26.5 18.13-26.8 17.4-27.1 17.4-27.7ZM38.3 0.3L38.3 0.3Q39-3.2 39-9.53 39-15.85 38.95-17 38.9-18.15 38.25-18.85 37.6-19.55 37.12-19.65 36.65-19.75 35.8-19.75 34.95-19.75 34.15-18.98 33.35-18.2 33.2-17.4L33.2-17.4 33-16.6Q32.85-15.1 32.85-9.95 32.85-4.8 33.07-3.48 33.3-2.15 33.3-1.7 33.3-1.25 32.9-0.8L32.9-0.8Q31.2 1 28.1 1L28.1 1Q27 1 27 0.35L27 0.35Q28-5.65 28-14.95L28-14.95Q28-18.4 27.85-19.6L27.85-19.6 27.65-21.2Q27.6-21.75 27.45-22.4L27.45-22.4Q27.45-23 29-23L29-23Q31.3-23 32.05-21.3L32.05-21.3Q32.1-21.1 32.25-21.1 32.4-21.1 32.95-21.5L32.95-21.5Q34.6-22.8 37.4-22.8L37.4-22.8Q39-22.8 40.55-22.2 42.1-21.6 42.7-20.6L42.7-20.6Q42.75-20.5 42.85-20.5 42.95-20.5 43.15-20.7L43.15-20.7Q45.25-22.8 48.6-22.8L48.6-22.8Q53.05-22.8 54.7-19.6L54.7-19.6Q55.3-18.35 55.3-16.45 55.3-14.55 55-11.05 54.7-7.55 54.7-5.7 54.7-3.85 55.07-2.35 55.45-0.85 55.82-0.2 56.2 0.45 56.2 0.55L56.2 0.55Q56.2 1.2 54.8 1.2L54.8 1.2Q51.35 1.2 50-0.2 48.65-1.6 48.65-3.88 48.65-6.15 49.57-10.03 50.5-13.9 50.5-15.85L50.5-15.85Q50.5-19.8 47.3-19.8L47.3-19.8Q45.95-19.8 45.15-19 44.35-18.2 44.2-17.4L44.2-17.4 44.1-16.6Q43.9-14.3 43.9-11.05 43.9-7.8 44-5.98 44.1-4.15 44.2-3.13 44.3-2.1 44.3-1.9L44.3-1.9Q44.3-0.5 42.55 0.25 40.8 1 39.15 1L39.15 1Q38.3 1 38.3 0.3ZM74.55-15L74.55-15 74.44-8.6Q74.44-1.95 75.89-0.6L75.89-0.6Q76.09-0.4 76.09-0.15L76.09-0.15Q76.09 0.6 72.87 0.6 69.64 0.6 69.44-1.3L69.44-1.3Q69.39-1.75 69.39-3.15L69.39-3.15 69.59-11.15Q69.59-11.5 69.19-11.5L69.19-11.5Q66.8-11.5 64.69-10.15 62.59-8.8 62.59-6.7L62.59-6.7Q62.59-5.6 63.2-4.85 63.8-4.1 64.67-4.1 65.55-4.1 66.12-4.45 66.69-4.8 66.8-4.85L66.8-4.85Q67.64-4.75 67.64-3.08 67.64-1.4 66.09-0.38 64.55 0.65 62.84 0.65 61.14 0.65 59.92 0.05 58.7-0.55 58.14-1.3 57.59-2.05 57.24-3L57.24-3Q56.89-4.15 56.89-5L56.89-5Q56.89-8.5 59.09-10.6 61.3-12.7 64.75-13.6L64.75-13.6Q69.3-14.5 69.5-15.25L69.5-15.25Q69.64-15.8 69.64-17.1L69.64-17.1Q69.64-19.75 66.94-19.75L66.94-19.75Q65.8-19.75 64.89-19.03 63.99-18.3 63.99-17.2L63.99-17.2 64.3-16Q64.19-15.15 62.49-15L62.49-15 61.95-14.95Q60.45-14.95 59.57-15.7 58.7-16.45 58.7-17.7L58.7-17.7Q58.7-18.5 59.22-19.48 59.74-20.45 60.55-21.05 61.34-21.65 63.02-22.13 64.69-22.6 66.25-22.6 67.8-22.6 68.64-22.5 69.5-22.4 70.97-22.03 72.44-21.65 73.42-20.6 74.39-19.55 74.47-18.38 74.55-17.2 74.55-15ZM93.09-17.2L92.84-13.4 93.04-11.65Q93.04-10.7 91.24-10.7L91.24-10.7Q87.59-10.7 87.59-13.45L87.59-13.45Q87.59-14.1 87.94-15.25 88.29-16.4 88.29-17.25 88.29-18.1 87.79-18.73 87.29-19.35 86.34-19.35 85.39-19.35 84.72-18.68 84.04-18 83.89-17.3L83.89-17.3 83.69-16.6Q83.39-15.05 83.39-11.43 83.39-7.8 83.49-5.73 83.59-3.65 83.69-2.88 83.79-2.1 83.79-1.95L83.79-1.95Q83.79-0.7 82.24 0.08 80.69 0.85 79.14 0.85 77.59 0.85 77.59 0.2L77.59 0.2 77.84-1.35Q78.54-5.7 78.54-12.7 78.54-19.7 78.04-22.2L78.04-22.2Q78.04-22.8 79.09-22.8L79.09-22.8Q81.79-22.8 82.69-20.95L82.69-20.95Q82.74-20.75 82.87-20.75 82.99-20.75 83.54-21.2L83.54-21.2Q85.19-22.55 87.44-22.55L87.44-22.55Q88.84-22.55 90.24-22L90.24-22Q93.09-20.85 93.09-17.2L93.09-17.2ZM94.59-19.5L94.59-19.5 94.74-21.5Q94.79-21.95 95.44-21.95L95.44-21.95 97.19-21.95 96.99-25.95 96.99-26.15Q96.99-27.3 98.74-28.35 100.49-29.4 101.94-29.4L101.94-29.4Q102.39-29.4 102.39-29L102.39-29 102.39-28.95Q102.19-27.6 101.99-22L101.99-22Q104.19-22 104.79-22.1 105.39-22.2 105.44-22.2L105.44-22.2Q105.79-22.2 105.79-21.6 105.79-21 105.24-20.08 104.69-19.15 104.04-19.1L104.04-19.1 101.94-19.1Q101.89-17.4 101.89-13.38 101.89-9.35 101.97-6.75 102.04-4.15 102.14-2.83 102.24-1.5 102.37-0.7 102.49 0.1 102.56 0.45 102.64 0.8 102.64 0.9L102.64 0.9Q102.64 1.4 101.99 1.45L101.99 1.45Q100.04 1.45 98.12 0.9 96.19 0.35 96.19-1L96.19-1Q97.24-9.4 97.24-19.05L97.24-19.05Q95.89-19.05 95.19-18.95L95.19-18.95 95.14-18.95Q94.69-18.95 94.59-19.5ZM126.04-32.4L126.04-32.4Q125.14-32.4 124.49-32.1 123.84-31.8 123.84-31.35L123.84-31.35Q123.24-29.25 123.24-18.82 123.24-8.4 123.19-7.15L123.19-7.15Q124.14-5.65 126.14-5.65L126.14-5.65Q129.69-5.65 131.49-9.58 133.29-13.5 133.29-19.43 133.29-25.35 131.54-28.88 129.79-32.4 126.04-32.4ZM116.49 0.55L116.49 0.55Q115.74 0.45 115.74 0.1L115.74 0.1 115.89-0.5Q117.14-3.2 117.14-19.95L117.14-19.95Q117.14-27.95 116.71-29.95 116.29-31.95 116.04-32.5L116.04-32.5 115.79-33Q115.59-33.2 115.59-33.58 115.59-33.95 116.19-34.2L116.19-34.2Q120.09-35.75 126.44-35.75L126.44-35.75Q139.79-35.75 139.79-18.75L139.79-18.75Q139.79-12.1 137.44-6.6L137.44-6.6Q136.49-4.5 135.24-2.98 133.99-1.45 131.96-0.43 129.94 0.6 127.49 0.6L127.49 0.6Q126.99 0.55 126.21 0.45 125.44 0.35 123.91-0.3 122.39-0.95 121.84-2L121.84-2Q119.99 0.55 116.49 0.55ZM146.53-12.7L146.53-12.7 146.58-11.45Q146.58-11.15 146.98-11.15L146.98-11.15Q148.58-11.3 149.78-11.98 150.98-12.65 151.58-13.5L151.58-13.5Q152.78-15.35 152.88-16.7L152.88-16.7 152.93-17.3Q152.93-20 150.78-20L150.78-20Q149.18-20 148.18-18.6L148.18-18.6Q146.53-16.4 146.53-12.7ZM157.43-6.05L157.43-6.05Q157.43-4.15 156.66-2.73 155.88-1.3 154.91-0.63 153.93 0.05 152.63 0.45L152.63 0.45Q150.98 0.95 149.48 0.95L149.48 0.95Q145.28 0.95 143.28-2.2 141.28-5.35 141.28-10.23 141.28-15.1 143.76-18.9 146.23-22.7 151.18-22.7L151.18-22.7Q155.68-22.7 157.28-19.55L157.28-19.55Q157.93-18.35 157.93-17.28 157.93-16.2 157.83-15.58 157.73-14.95 157.13-13.7 156.53-12.45 155.53-11.45 154.53-10.45 152.38-9.55 150.23-8.65 147.33-8.35L147.33-8.35Q146.93-8.35 146.93-8L146.93-8Q146.93-7.55 147.26-6.68 147.58-5.8 147.98-5.2L147.98-5.2Q149.08-3.8 151.23-3.8L151.23-3.8Q153.38-3.8 154.88-5.2L154.88-5.2Q155.68-5.95 156.18-7.05L156.18-7.05Q156.38-7.45 156.71-7.45 157.03-7.45 157.23-6.9 157.43-6.35 157.43-6.05ZM176.53-5.75L176.53-5.75Q176.53-2.9 174.26-1.03 171.98 0.85 168.83 0.85L168.83 0.85Q164.23 0.85 162.08-1.93 159.93-4.7 159.93-9.45L159.93-9.45Q159.93-14.5 162.18-18.4L162.18-18.4Q163.28-20.4 165.33-21.55 167.38-22.7 170.13-22.7L170.13-22.7Q174.28-22.7 175.98-19.9L175.98-19.9Q176.68-18.75 176.68-17.2L176.68-17.2Q176.68-14.8 174.68-13.6L174.68-13.6Q173.88-13.15 173.21-13.15 172.53-13.15 172.11-13.23 171.68-13.3 170.98-13.9 170.28-14.5 170.28-15.55L170.28-15.55Q170.33-16.1 171.13-16.45L171.13-16.45Q171.88-16.9 171.88-18.05L171.88-18.05Q171.88-20 169.48-20L169.48-20Q168.88-20 168.06-19.48 167.23-18.95 166.68-18.13 166.13-17.3 165.66-15.53 165.18-13.75 165.18-12.13 165.18-10.5 165.31-9.68 165.43-8.85 165.86-7.43 166.28-6 167.46-5.1 168.63-4.2 170.38-4.2L170.38-4.2Q172.48-4.2 174.08-5.95L174.08-5.95Q174.73-6.65 175.13-7.65L175.13-7.65Q175.33-8.05 175.63-8.05L175.63-8.05Q176.08-8.05 176.31-7.23 176.53-6.4 176.53-5.75ZM184.33-26.75L184.33-26.75 183.13-26.8Q181.78-26.8 181.38-26.15L181.38-26.15Q181.28-26 181.13-26L181.13-26Q180.48-26 180.48-28.23 180.48-30.45 181.15-31.05 181.83-31.65 183.5-31.65 185.18-31.65 185.78-31.08 186.38-30.5 186.38-29.15 186.38-27.8 185.93-27.28 185.48-26.75 184.33-26.75ZM180.33-1.5L180.33-1.5 180.88-13.15Q180.88-17.3 179.93-18.8L179.93-18.8Q179.63-19.3 179.23-19.55L179.23-19.55Q178.93-19.65 178.93-19.95L178.93-19.95Q178.93-20.85 181.48-21.7 184.03-22.55 185.2-22.55 186.38-22.55 186.43-21.95L186.43-21.95Q186.43-20.95 186.15-16.28 185.88-11.6 185.88-6.45 185.88-1.3 186.48-0.05L186.48-0.05Q186.63 0.2 186.63 0.45L186.63 0.45Q186.63 1.1 184.73 1.1 182.83 1.1 180.83 0.1L180.83 0.1Q180.33-0.15 180.33-1.5ZM204.88-6.85L204.88-6.85Q204.88-4.7 204.05-3.1 203.23-1.5 202.18-0.75 201.13 0 199.68 0.45L199.68 0.45Q197.78 1.05 196.23 1.05L196.23 1.05Q192.98 1.05 190.83-0.23 188.68-1.5 188.68-4.3L188.68-4.3Q188.68-5.95 189.58-7L189.58-7Q190.98-8.55 192.93-8.55L192.93-8.55Q193.53-8.55 193.53-8L193.53-8Q193.53-7.95 193.3-7.23 193.08-6.5 193.08-5.4 193.08-4.3 193.95-3.45 194.83-2.6 196.08-2.6 197.33-2.6 198.08-3.03 198.83-3.45 199.13-4.1L199.13-4.1Q199.58-5 199.58-5.8L199.58-5.8Q199.58-7.25 198.13-8.3 196.68-9.35 194.93-9.95 193.18-10.55 191.73-11.95 190.28-13.35 190.28-15.45L190.28-15.45Q190.28-19.05 192.55-20.85 194.83-22.65 198.73-22.65L198.73-22.65Q200.43-22.65 202.3-22.18 204.18-21.7 204.18-20.58 204.18-19.45 203.8-18.5 203.43-17.55 202.88-17.55L202.88-17.55Q202.58-17.55 202.48-17.78 202.38-18 202.13-18.3 201.88-18.6 200.93-19.07 199.98-19.55 199.3-19.55 198.63-19.55 198.4-19.53 198.18-19.5 197.63-19.38 197.08-19.25 196.63-19L196.63-19Q195.48-18.35 195.48-17.1L195.48-17.1Q195.48-16.3 195.83-15.93 196.18-15.55 196.38-15.35 196.58-15.15 197.08-14.88 197.58-14.6 197.78-14.5 197.98-14.4 198.68-14.08 199.38-13.75 199.58-13.65L199.58-13.65Q204.88-11.15 204.88-6.85ZM212.02-26.75L212.02-26.75 210.82-26.8Q209.47-26.8 209.07-26.15L209.07-26.15Q208.97-26 208.82-26L208.82-26Q208.17-26 208.17-28.23 208.17-30.45 208.85-31.05 209.52-31.65 211.2-31.65 212.87-31.65 213.47-31.08 214.07-30.5 214.07-29.15 214.07-27.8 213.62-27.28 213.17-26.75 212.02-26.75ZM208.02-1.5L208.02-1.5 208.57-13.15Q208.57-17.3 207.62-18.8L207.62-18.8Q207.32-19.3 206.92-19.55L206.92-19.55Q206.62-19.65 206.62-19.95L206.62-19.95Q206.62-20.85 209.17-21.7 211.72-22.55 212.9-22.55 214.07-22.55 214.12-21.95L214.12-21.95Q214.12-20.95 213.85-16.28 213.57-11.6 213.57-6.45 213.57-1.3 214.17-0.05L214.17-0.05Q214.32 0.2 214.32 0.45L214.32 0.45Q214.32 1.1 212.42 1.1 210.52 1.1 208.52 0.1L208.52 0.1Q208.02-0.15 208.02-1.5ZM222.12-18.85L222.12-18.85Q220.82-18.8 220.25-18.78 219.67-18.75 219.67-19.05 219.67-19.35 219.97-19.65L219.97-19.65Q223.17-22.6 230.77-22.6L230.77-22.6Q233.37-22.6 234.87-22.15L234.87-22.15 235.37-22Q235.97-21.75 235.97-21.45L235.97-21.45Q235.97-21.2 235.62-21.05L235.62-21.05Q234.27-20.65 233.02-19.78 231.77-18.9 231.77-18.55L231.77-18.55 232.07-18.2Q233.67-17.3 234.55-15.35 235.42-13.4 235.52-11.9L235.52-11.9 235.62-10.35Q235.62-5.4 232.87-2.2 230.12 1 225.37 1L225.37 1Q222.97 1 221.22 0.15 219.47-0.7 218.65-1.78 217.82-2.85 217.32-4.2L217.32-4.2Q216.72-6.05 216.72-8.03 216.72-10 217.4-12 218.07-14 218.95-14.95 219.82-15.9 220.92-16.5L220.92-16.5Q222.32-17.25 223.17-17.25 224.02-17.25 224.02-16.9L224.02-16.9 223.72-16.4Q222.62-15.1 222.15-13 221.67-10.9 221.67-9.28 221.67-7.65 222.07-6.05 222.47-4.45 222.97-3.68 223.47-2.9 224.12-2.5L224.12-2.5Q225.07-1.9 226.12-1.9 227.17-1.9 228.17-2.73 229.17-3.55 229.62-4.9L229.62-4.9Q230.52-7.4 230.52-10.05L230.52-10.05Q230.52-14.25 228.4-16.55 226.27-18.85 222.12-18.85ZM238.07 0.35L238.07 0.35Q238.97-5.05 238.97-12.6 238.97-20.15 238.52-22.4L238.52-22.4Q238.52-23.05 240.02-23.05L240.02-23.05Q242.32-23.05 243.07-21.3L243.07-21.3Q243.12-21.15 243.32-21.15 243.52-21.15 243.62-21.25L243.62-21.25Q245.17-22.85 248.42-22.85 251.67-22.85 253.57-21.2 255.47-19.55 255.47-16.4L255.47-16.4Q255.47-14.5 255.14-11 254.82-7.5 254.82-5.8L254.82-5.8Q254.82-1.75 256.17 0.05L256.17 0.05Q256.37 0.3 256.37 0.55L256.37 0.55Q256.37 1.2 254.97 1.2L254.97 1.2Q248.77 1.2 248.77-4.3L248.77-4.3Q248.77-6.4 249.72-10.15 250.67-13.9 250.67-15.85L250.67-15.85Q250.67-19.85 247.37-19.85L247.37-19.85Q245.77-19.85 244.94-18.9 244.12-17.95 244.02-16.73 243.92-15.5 243.92-12.1L243.92-12.1Q243.92-6.9 244.27-3.05L244.27-3.05 244.37-1.95Q244.37-0.55 242.54 0.23 240.72 1 239.39 1 238.07 1 238.07 0.35ZM273.22-6.85L273.22-6.85Q273.22-4.7 272.39-3.1 271.57-1.5 270.52-0.75 269.47 0 268.02 0.45L268.02 0.45Q266.12 1.05 264.57 1.05L264.57 1.05Q261.32 1.05 259.17-0.23 257.02-1.5 257.02-4.3L257.02-4.3Q257.02-5.95 257.92-7L257.92-7Q259.32-8.55 261.27-8.55L261.27-8.55Q261.87-8.55 261.87-8L261.87-8Q261.87-7.95 261.64-7.23 261.42-6.5 261.42-5.4 261.42-4.3 262.29-3.45 263.17-2.6 264.42-2.6 265.67-2.6 266.42-3.03 267.17-3.45 267.47-4.1L267.47-4.1Q267.92-5 267.92-5.8L267.92-5.8Q267.92-7.25 266.47-8.3 265.02-9.35 263.27-9.95 261.52-10.55 260.07-11.95 258.62-13.35 258.62-15.45L258.62-15.45Q258.62-19.05 260.89-20.85 263.17-22.65 267.07-22.65L267.07-22.65Q268.77-22.65 270.64-22.18 272.52-21.7 272.52-20.58 272.52-19.45 272.14-18.5 271.77-17.55 271.22-17.55L271.22-17.55Q270.92-17.55 270.82-17.78 270.72-18 270.47-18.3 270.22-18.6 269.27-19.07 268.32-19.55 267.64-19.55 266.97-19.55 266.74-19.53 266.52-19.5 265.97-19.38 265.42-19.25 264.97-19L264.97-19Q263.82-18.35 263.82-17.1L263.82-17.1Q263.82-16.3 264.17-15.93 264.52-15.55 264.72-15.35 264.92-15.15 265.42-14.88 265.92-14.6 266.12-14.5 266.32-14.4 267.02-14.08 267.72-13.75 267.92-13.65L267.92-13.65Q273.22-11.15 273.22-6.85ZM300.11-27.7L300.11-27.7 300.31-29.25Q300.31-31.55 298.51-32.2L298.51-32.2Q297.11-32.65 296.36-32.65L296.36-32.65 296.31-32.65Q294.81-32.65 293.71-32.18 292.61-31.7 292.11-31L292.11-31Q291.06-29.55 290.91-27.95L290.91-27.95Q290.91-26.05 292.61-24.68 294.31-23.3 296.74-22.28 299.16-21.25 301.59-20.05 304.01-18.85 305.71-16.6 307.41-14.35 307.41-11.2L307.41-11.2Q307.41-5.05 303.54-2 299.66 1.05 294.74 1.05 289.81 1.05 286.59-1.18 283.36-3.4 283.36-7.15L283.36-7.15 283.36-7.2Q283.36-9.05 283.94-10.43 284.51-11.8 285.31-12.45L285.31-12.45Q286.96-13.8 288.31-13.9L288.31-13.9 288.91-13.95Q290.31-13.95 291.46-13.28 292.61-12.6 292.61-11.4L292.61-11.4Q292.61-10.8 291.96-10.4 291.31-10 290.84-9.2 290.36-8.4 290.31-7.85L290.31-7.85 290.21-7.3Q290.21-4.25 293.01-3.25L293.01-3.25Q294.01-2.9 294.61-2.9L294.61-2.9Q297.36-2.9 299.04-4.55 300.71-6.2 300.71-8.75L300.71-8.75Q300.71-11.8 298.11-13.7L298.11-13.7Q296.16-15.1 293.89-16.05 291.61-17 290.81-17.4 290.01-17.8 289.11-18.35 288.21-18.9 287.11-19.9L287.11-19.9Q284.71-22 284.71-25.58 284.71-29.15 286.66-31.6L286.66-31.6Q290.16-36.05 297.16-36.05L297.16-36.05Q300.86-36.05 303.41-34.63 305.96-33.2 305.96-30.7L305.96-30.7Q305.96-28.9 304.94-27.7 303.91-26.5 302.31-26.5L302.31-26.5Q301.56-26.5 300.84-26.8 300.11-27.1 300.11-27.7ZM308.96-19.5L308.96-19.5 309.11-21.5Q309.16-21.95 309.81-21.95L309.81-21.95 311.56-21.95 311.36-25.95 311.36-26.15Q311.36-27.3 313.11-28.35 314.86-29.4 316.31-29.4L316.31-29.4Q316.76-29.4 316.76-29L316.76-29 316.76-28.95Q316.56-27.6 316.36-22L316.36-22Q318.56-22 319.16-22.1 319.76-22.2 319.81-22.2L319.81-22.2Q320.16-22.2 320.16-21.6 320.16-21 319.61-20.08 319.06-19.15 318.41-19.1L318.41-19.1 316.31-19.1Q316.26-17.4 316.26-13.38 316.26-9.35 316.33-6.75 316.41-4.15 316.51-2.83 316.61-1.5 316.73-0.7 316.86 0.1 316.93 0.45 317.01 0.8 317.01 0.9L317.01 0.9Q317.01 1.4 316.36 1.45L316.36 1.45Q314.41 1.45 312.48 0.9 310.56 0.35 310.56-1L310.56-1Q311.61-9.4 311.61-19.05L311.61-19.05Q310.26-19.05 309.56-18.95L309.56-18.95 309.51-18.95Q309.06-18.95 308.96-19.5ZM337.61-15L337.61-15 337.51-8.6Q337.51-1.95 338.96-0.6L338.96-0.6Q339.16-0.4 339.16-0.15L339.16-0.15Q339.16 0.6 335.93 0.6 332.71 0.6 332.51-1.3L332.51-1.3Q332.46-1.75 332.46-3.15L332.46-3.15 332.66-11.15Q332.66-11.5 332.26-11.5L332.26-11.5Q329.86-11.5 327.76-10.15 325.66-8.8 325.66-6.7L325.66-6.7Q325.66-5.6 326.26-4.85 326.86-4.1 327.73-4.1 328.61-4.1 329.18-4.45 329.76-4.8 329.86-4.85L329.86-4.85Q330.71-4.75 330.71-3.08 330.71-1.4 329.16-0.38 327.61 0.65 325.91 0.65 324.21 0.65 322.98 0.05 321.76-0.55 321.21-1.3 320.66-2.05 320.31-3L320.31-3Q319.96-4.15 319.96-5L319.96-5Q319.96-8.5 322.16-10.6 324.36-12.7 327.81-13.6L327.81-13.6Q332.36-14.5 332.56-15.25L332.56-15.25Q332.71-15.8 332.71-17.1L332.71-17.1Q332.71-19.75 330.01-19.75L330.01-19.75Q328.86-19.75 327.96-19.03 327.06-18.3 327.06-17.2L327.06-17.2 327.36-16Q327.26-15.15 325.56-15L325.56-15 325.01-14.95Q323.51-14.95 322.63-15.7 321.76-16.45 321.76-17.7L321.76-17.7Q321.76-18.5 322.28-19.48 322.81-20.45 323.61-21.05 324.41-21.65 326.08-22.13 327.76-22.6 329.31-22.6 330.86-22.6 331.71-22.5 332.56-22.4 334.03-22.03 335.51-21.65 336.48-20.6 337.46-19.55 337.53-18.38 337.61-17.2 337.61-15ZM356.15-17.2L355.9-13.4 356.1-11.65Q356.1-10.7 354.3-10.7L354.3-10.7Q350.65-10.7 350.65-13.45L350.65-13.45Q350.65-14.1 351-15.25 351.35-16.4 351.35-17.25 351.35-18.1 350.85-18.73 350.35-19.35 349.4-19.35 348.45-19.35 347.78-18.68 347.1-18 346.95-17.3L346.95-17.3 346.75-16.6Q346.45-15.05 346.45-11.43 346.45-7.8 346.55-5.73 346.65-3.65 346.75-2.88 346.85-2.1 346.85-1.95L346.85-1.95Q346.85-0.7 345.3 0.08 343.75 0.85 342.2 0.85 340.65 0.85 340.65 0.2L340.65 0.2 340.9-1.35Q341.6-5.7 341.6-12.7 341.6-19.7 341.1-22.2L341.1-22.2Q341.1-22.8 342.15-22.8L342.15-22.8Q344.85-22.8 345.75-20.95L345.75-20.95Q345.8-20.75 345.93-20.75 346.05-20.75 346.6-21.2L346.6-21.2Q348.25-22.55 350.5-22.55L350.5-22.55Q351.9-22.55 353.3-22L353.3-22Q356.15-20.85 356.15-17.2L356.15-17.2ZM357.65-19.5L357.65-19.5 357.8-21.5Q357.85-21.95 358.5-21.95L358.5-21.95 360.25-21.95 360.05-25.95 360.05-26.15Q360.05-27.3 361.8-28.35 363.55-29.4 365-29.4L365-29.4Q365.45-29.4 365.45-29L365.45-29 365.45-28.95Q365.25-27.6 365.05-22L365.05-22Q367.25-22 367.85-22.1 368.45-22.2 368.5-22.2L368.5-22.2Q368.85-22.2 368.85-21.6 368.85-21 368.3-20.08 367.75-19.15 367.1-19.1L367.1-19.1 365-19.1Q364.95-17.4 364.95-13.38 364.95-9.35 365.03-6.75 365.1-4.15 365.2-2.83 365.3-1.5 365.43-0.7 365.55 0.1 365.63 0.45 365.7 0.8 365.7 0.9L365.7 0.9Q365.7 1.4 365.05 1.45L365.05 1.45Q363.1 1.45 361.18 0.9 359.25 0.35 359.25-1L359.25-1Q360.3-9.4 360.3-19.05L360.3-19.05Q358.95-19.05 358.25-18.95L358.25-18.95 358.2-18.95Q357.75-18.95 357.65-19.5ZM387-22.15L387-22.15 387-21.45 395.85-21.45 395.85-21.55Q395.9-22.75 395.9-24.58 395.9-26.4 395.85-27.78 395.8-29.15 395.75-30.1 395.7-31.05 395.62-31.75 395.55-32.45 395.5-32.83 395.45-33.2 395.45-33.5 395.45-33.8 396-34.2L396-34.2Q398.4-35.8 401.35-35.8L401.35-35.8Q403.2-35.8 403.2-35.15L403.2-35.15Q403.2-35.1 403.1-34.6L403.1-34.6Q402.15-29.85 401.9-21.45L401.9-21.45Q401.75-13.05 401.75-12.45L401.75-12.45Q401.75-4.7 402.65-1.7L402.65-1.7Q402.8-1.3 402.8-1.03 402.8-0.75 402.4-0.4L402.4-0.4Q400.55 0.8 397.6 0.8L397.6 0.8Q395.7 0.8 395.45-0.5L395.45-0.5Q395.3-1.2 395.3-2.68 395.3-4.15 395.47-7.2 395.65-10.25 395.75-17.85L395.75-17.85 387-17.85Q387-6.45 387.7-1.85L387.7-1.85Q387.7-0.65 385.4 0.13 383.1 0.9 381.6 0.9 380.1 0.9 380.1 0.45L380.1 0.45Q380.1 0.15 380.25-0.3L380.25-0.3Q381.2-2.4 381.2-17.2L381.2-17.2 381.2-17.85 378.25-17.85Q377.85-17.85 377.85-18.15L377.85-18.15Q377.85-18.25 378.05-18.93 378.25-19.6 378.97-20.5 379.7-21.4 380.6-21.4L380.6-21.4 381.15-21.4Q381.15-31.25 380-32.75L380-32.75 379.8-33.05Q379.5-33.3 379.5-33.68 379.5-34.05 380.05-34.3L380.05-34.3Q380.8-34.75 382.72-35.2 384.65-35.65 386.2-35.65 387.75-35.65 387.75-34.95L387.75-34.95 387.75-34.8Q387.15-29.6 387-22.15ZM410.79-12.7L410.79-12.7 410.84-11.45Q410.84-11.15 411.24-11.15L411.24-11.15Q412.84-11.3 414.04-11.98 415.24-12.65 415.84-13.5L415.84-13.5Q417.04-15.35 417.14-16.7L417.14-16.7 417.19-17.3Q417.19-20 415.04-20L415.04-20Q413.44-20 412.44-18.6L412.44-18.6Q410.79-16.4 410.79-12.7ZM421.69-6.05L421.69-6.05Q421.69-4.15 420.92-2.73 420.14-1.3 419.17-0.63 418.19 0.05 416.89 0.45L416.89 0.45Q415.24 0.95 413.74 0.95L413.74 0.95Q409.54 0.95 407.54-2.2 405.54-5.35 405.54-10.23 405.54-15.1 408.02-18.9 410.49-22.7 415.44-22.7L415.44-22.7Q419.94-22.7 421.54-19.55L421.54-19.55Q422.19-18.35 422.19-17.28 422.19-16.2 422.09-15.58 421.99-14.95 421.39-13.7 420.79-12.45 419.79-11.45 418.79-10.45 416.64-9.55 414.49-8.65 411.59-8.35L411.59-8.35Q411.19-8.35 411.19-8L411.19-8Q411.19-7.55 411.52-6.68 411.84-5.8 412.24-5.2L412.24-5.2Q413.34-3.8 415.49-3.8L415.49-3.8Q417.64-3.8 419.14-5.2L419.14-5.2Q419.94-5.95 420.44-7.05L420.44-7.05Q420.64-7.45 420.97-7.45 421.29-7.45 421.49-6.9 421.69-6.35 421.69-6.05ZM439.44-17.2L439.19-13.4 439.39-11.65Q439.39-10.7 437.59-10.7L437.59-10.7Q433.94-10.7 433.94-13.45L433.94-13.45Q433.94-14.1 434.29-15.25 434.64-16.4 434.64-17.25 434.64-18.1 434.14-18.73 433.64-19.35 432.69-19.35 431.74-19.35 431.06-18.68 430.39-18 430.24-17.3L430.24-17.3 430.04-16.6Q429.74-15.05 429.74-11.43 429.74-7.8 429.84-5.73 429.94-3.65 430.04-2.88 430.14-2.1 430.14-1.95L430.14-1.95Q430.14-0.7 428.59 0.08 427.04 0.85 425.49 0.85 423.94 0.85 423.94 0.2L423.94 0.2 424.19-1.35Q424.89-5.7 424.89-12.7 424.89-19.7 424.39-22.2L424.39-22.2Q424.39-22.8 425.44-22.8L425.44-22.8Q428.14-22.8 429.04-20.95L429.04-20.95Q429.09-20.75 429.21-20.75 429.34-20.75 429.89-21.2L429.89-21.2Q431.54-22.55 433.79-22.55L433.79-22.55Q435.19-22.55 436.59-22L436.59-22Q439.44-20.85 439.44-17.2L439.44-17.2ZM446.44-12.7L446.44-12.7 446.49-11.45Q446.49-11.15 446.89-11.15L446.89-11.15Q448.49-11.3 449.69-11.98 450.89-12.65 451.49-13.5L451.49-13.5Q452.69-15.35 452.79-16.7L452.79-16.7 452.84-17.3Q452.84-20 450.69-20L450.69-20Q449.09-20 448.09-18.6L448.09-18.6Q446.44-16.4 446.44-12.7ZM457.34-6.05L457.34-6.05Q457.34-4.15 456.56-2.73 455.79-1.3 454.81-0.63 453.84 0.05 452.54 0.45L452.54 0.45Q450.89 0.95 449.39 0.95L449.39 0.95Q445.19 0.95 443.19-2.2 441.19-5.35 441.19-10.23 441.19-15.1 443.66-18.9 446.14-22.7 451.09-22.7L451.09-22.7Q455.59-22.7 457.19-19.55L457.19-19.55Q457.84-18.35 457.84-17.28 457.84-16.2 457.74-15.58 457.64-14.95 457.04-13.7 456.44-12.45 455.44-11.45 454.44-10.45 452.29-9.55 450.14-8.65 447.24-8.35L447.24-8.35Q446.84-8.35 446.84-8L446.84-8Q446.84-7.55 447.16-6.68 447.49-5.8 447.89-5.2L447.89-5.2Q448.99-3.8 451.14-3.8L451.14-3.8Q453.29-3.8 454.79-5.2L454.79-5.2Q455.59-5.95 456.09-7.05L456.09-7.05Q456.29-7.45 456.61-7.45 456.94-7.45 457.14-6.9 457.34-6.35 457.34-6.05Z" opacity="1" transform="matrix(1,0,0,1,0,0)" fill="#ffffff" class="slogan-text-1" data-fill-palette-color="secondary" id="text-1"></path></svg></g></svg></g></svg></g></svg></g><g><svg viewBox="0 0 96.7018491966504 96.7018491966504" height="96.7018491966504" width="96.7018491966504"><g><svg xmlns="http://www.w3.org/2000/svg" xmlns:xlink="http://www.w3.org/1999/xlink" version="1.1" x="0" y="0" viewBox="6.593 8.439 82.814 82.814" enable-background="new 0 0 96 99.818" xml:space="preserve" height="96.7018491966504" width="96.7018491966504" class="icon-icon-0" data-fill-palette-color="accent" id="icon-0"><g fill="#fe6152" data-fill-palette-color="accent"><path fill="#fe6152" d="M6.593 77.364C6.593 85.032 12.812 91.253 20.484 91.253H45.795V52.051H6.593zM19.644 62.451H24.568L27.267 66.643 30.11 62.451H34.847L29.679 69.672 35.321 77.697H30.368L27.267 72.974 24.138 77.697H19.415L24.913 69.843z" data-fill-palette-color="accent"></path><path fill="#fe6152" d="M75.518 8.44H50.205V47.64H89.406V22.33C89.406 14.659 83.188 8.44 75.518 8.44M73.016 30.759H65.091V26.726H73.016z" data-fill-palette-color="accent"></path><path fill="#fe6152" d="M6.593 22.33V47.642L45.794 47.641V8.44L20.484 8.439C12.812 8.439 6.593 14.659 6.593 22.33M25.566 22.219H29.241V27.69H34.768V31.464H29.241V36.935H25.566V31.464H20.053V27.69H25.566z" data-fill-palette-color="accent"></path><path fill="#fe6152" d="M50.205 91.253H75.517C83.189 91.253 89.407 85.032 89.407 77.364V52.051H50.205zM69.092 58.905H72.121L66.854 80.67H63.881z" data-fill-palette-color="accent"></path></g></svg></g></svg></g></svg></g><defs></defs></svg><rect width="395.52" height="74.21069058419987" fill="none" stroke="none" visibility="hidden"></rect></g></svg></g></svg>